Coordinates
version=1
nRows=26
nColumns=30
inDegrees=yes

Units are S.I. units (second, meters, Newtons, ...)
Angles are in degrees.

endheader
time	floatyaw	floatroll	floatpitch	floatx	floaty	floatz	pro_sup_l	deviation_l	flexion_l	cmc_flexion_l	cmc_abduction_l	mp_flexion_l	ip_flexion_l	2mcp_flexion_l	2mcp_abduction_l	2pm_flexion_l	2md_flexion_l	3mcp_flexion_l	3mcp_abduction_l	3pm_flexion_l	3md_flexion_l	4mcp_flexion_l	4mcp_abduction_l	4pm_flexion_l	4md_flexion_l	5mcp_flexion_l	5mcp_abduction_l	5pm_flexion_l	5md_flexion_l
0.005000	-0.845308	-4.283240	94.249796	0.163545	-0.268878	0.157987	105.803648	21.191818	21.439616	-5.604401	37.180794	-16.948668	-22.505415	62.259898	13.627830	28.755254	35.174350	53.591914	7.846265	37.219612	50.441580	34.345219	-6.523817	71.712839	66.394551	26.927374	-10.247140	82.367830	56.128367
0.015000	-0.845308	-4.283240	94.249796	0.162886	-0.268220	0.157192	105.161984	20.828447	20.766799	-4.806279	37.163692	-17.455895	-25.106307	62.445222	13.582967	29.068397	36.591390	53.465740	7.772722	37.893745	52.319396	34.138937	-6.590811	72.158782	67.314546	26.585727	-10.059129	82.486431	56.404141
0.025000	-0.845308	-4.283240	94.249796	0.162168	-0.267611	0.156348	104.542201	20.488182	20.094673	-4.049672	37.249521	-17.843792	-27.731134	62.568792	13.550059	29.413338	38.052530	53.303197	7.708312	38.623077	54.134173	33.932223	-6.656045	72.608630	68.185591	26.284286	-9.903384	82.597187	56.656563
0.035000	-0.845308	-4.283240	94.249796	0.161415	-0.267097	0.155470	103.966729	20.189149	19.459522	-3.399549	37.390859	-18.096397	-30.207017	62.654568	13.528751	29.733951	39.465969	53.134420	7.655376	39.337804	55.767667	33.751942	-6.713201	73.018942	68.964418	26.069557	-9.785792	82.673823	56.844912
0.045000	-0.845308	-4.283240	94.249796	0.160650	-0.266704	0.154581	103.458115	19.945916	18.888034	-2.892694	37.552155	-18.209583	-32.389701	62.721475	13.516299	29.982849	40.732436	52.985421	7.614650	39.963426	57.128377	33.614089	-6.758343	73.351715	69.618738	25.951585	-9.701558	82.701332	56.965272
0.055000	-0.845308	-4.283240	94.249796	0.159890	-0.266435	0.153719	103.039399	19.768447	18.395579	-2.533882	37.715578	-18.196334	-34.184471	62.775244	13.510385	30.137396	41.771279	52.872668	7.585825	40.439963	58.164345	33.523228	-6.790883	73.582895	70.133115	25.911050	-9.640609	82.678471	57.039500
0.065000	-0.845308	-4.283240	94.249796	0.159152	-0.266271	0.152937	102.730337	19.660911	17.987378	-2.302770	37.875810	-18.087103	-35.550509	62.810618	13.510146	30.201025	42.541139	52.803042	7.567980	40.734210	58.869760	33.475254	-6.812815	73.706028	70.510315	25.918128	-9.593995	82.613265	57.094989
0.075000	-0.845308	-4.283240	94.249796	0.158458	-0.266183	0.152291	102.541356	19.620892	17.659591	-2.166613	38.031235	-17.923362	-36.496118	62.821807	13.515271	30.194255	43.044171	52.776642	7.559554	40.846015	59.280886	33.461693	-6.827005	73.733566	70.766947	25.949467	-9.556924	82.518410	57.149479
0.085000	-0.845308	-4.283240	94.249796	0.157834	-0.266139	0.151825	102.468147	19.638998	17.400602	-2.091986	38.178831	-17.746289	-37.073029	62.812291	13.524568	30.144709	43.313749	52.788634	7.558092	40.809663	59.459749	33.472822	-6.835759	73.696559	70.925315	25.994055	-9.527663	82.410394	57.206761
0.095000	-0.845308	-4.283240	94.249796	0.157314	-0.266113	0.151553	102.489011	19.698877	17.194816	-2.051651	38.314555	-17.585748	-37.369112	62.795983	13.535454	30.081312	43.396169	52.828939	7.560326	40.688234	59.472235	33.498473	-6.840383	73.639998	71.005882	26.048562	-9.504839	82.310194	57.259728
0.105000	-0.845308	-4.283240	94.249796	0.156923	-0.266093	0.151449	102.566900	19.778611	17.028784	-2.026941	38.435802	-17.455034	-37.492547	62.789397	13.544666	30.030683	43.338609	52.881888	7.562939	40.557831	59.372911	33.527667	-6.841577	73.610909	71.024632	26.109279	-9.485968	82.240441	57.295780
0.115000	-0.845308	-4.283240	94.249796	0.156673	-0.266080	0.151456	102.657632	19.854534	16.895728	-2.007679	38.541911	-17.353532	-37.546018	62.801598	13.549547	30.011805	43.187800	52.928675	7.563591	40.483313	59.204371	33.548813	-6.840012	73.641288	70.996491	26.167199	-9.468129	82.217121	57.303568
0.125000	-0.845308	-4.283240	94.249796	0.156551	-0.266078	0.151507	102.722898	19.907020	16.794867	-1.990792	38.632047	-17.274560	-37.600872	62.829309	13.549028	30.029598	42.993865	52.952971	7.561536	40.494893	59.007069	33.551302	-6.836611	73.734137	70.941193	26.208220	-9.449628	82.240253	57.280856
0.135000	-0.845308	-4.283240	94.249796	0.156521	-0.266094	0.151548	102.742517	19.925844	16.726208	-1.977803	38.703214	-17.212937	-37.684909	62.859727	13.543823	30.072370	42.810140	52.947052	7.557431	40.578151	58.827131	33.528308	-6.832483	73.861978	70.885186	26.217240	-9.431016	82.291082	57.239475
0.145000	-0.845308	-4.283240	94.249796	0.156534	-0.266126	0.151555	102.719313	19.912395	16.685256	-1.971613	38.751255	-17.167923	-37.789521	62.878428	13.535867	30.116918	42.684460	52.914979	7.552596	40.684131	58.712366	33.479839	-6.828709	73.980537	70.855817	26.184045	-9.414604	82.339472	57.201938
0.155000	-0.845308	-4.283240	94.249796	0.156544	-0.266169	0.151536	102.673844	19.877455	16.661762	-1.973585	38.774714	-17.141014	-37.889963	62.877343	13.527408	30.139795	42.645284	52.870884	7.548235	40.754905	58.697227	33.414161	-6.826135	74.050501	70.870622	26.108617	-9.402975	82.357809	57.189884
0.165000	-0.845308	-4.283240	94.249796	0.156525	-0.266215	0.151514	102.632072	19.835564	16.643233	-1.982122	38.778429	-17.131641	-37.966058	62.858429	13.520252	30.128906	42.691246	52.832818	7.544979	40.751462	58.787048	33.345738	-6.825204	74.055024	70.929402	26.003159	-9.397548	82.332965	57.211987
0.175000	-0.845308	-4.283240	94.249796	0.156473	-0.266255	0.151515	102.612636	19.798676	16.620361	-1.993249	38.773409	-17.134582	-38.012745	62.831493	13.515403	30.088969	42.791825	52.814948	7.542826	40.669708	58.953528	33.289770	-6.825828	74.003708	71.015278	25.888984	-9.397933	82.269408	57.260113
0.185000	-0.845308	-4.283240	94.249796	0.156405	-0.266282	0.151548	102.619769	19.772148	16.590659	-2.002709	38.772414	-17.141001	-38.037700	62.808155	13.513066	30.037886	42.900487	52.822048	7.541354	40.537521	59.146111	33.256048	-6.827390	73.922970	71.104295	25.788882	-9.402134	82.183226	57.315769
0.195000	-0.845308	-4.283240	94.249796	0.156342	-0.266296	0.151604	102.644057	19.754531	16.558288	-2.008140	38.784236	-17.142117	-38.051585	62.796024	13.512830	29.996676	42.973932	52.848924	7.540044	40.397116	59.312935	33.245554	-6.828968	73.841087	71.176961	25.718463	-9.407353	82.092984	57.360976
0.205000	-0.845308	-4.283240	94.249796	0.156299	-0.266297	0.151663	102.669037	19.740457	16.530746	-2.009886	38.810657	-17.132940	-38.059937	62.796365	13.513876	29.979231	42.987682	52.884433	7.538563	40.284540	59.419568	33.251413	-6.829741	73.777489	71.224910	25.681083	-9.411106	82.013615	57.385921
0.215000	-0.845308	-4.283240	94.249796	0.156282	-0.266291	0.151701	102.679455	19.724556	16.514606	-2.009957	38.847674	-17.113791	-38.062269	62.805762	13.515144	29.987049	42.941537	52.917516	7.536856	40.216547	59.457454	33.263239	-6.829342	73.739998	71.250952	25.668916	-9.412173	81.954672	57.390113
0.225000	-0.845308	-4.283240	94.249796	0.156286	-0.266281	0.151707	102.667371	19.704431	16.512414	-2.010017	38.889248	-17.089070	-38.056866	62.819727	13.515510	30.010219	42.854525	52.942151	7.535023	40.188168	59.441367	33.272345	-6.827910	73.727315	71.265206	25.668906	-9.410786	81.920217	57.378942
0.235000	-0.845308	-4.283240	94.249796	0.156301	-0.266272	0.151678	102.634073	19.681593	16.521830	-2.010010	38.930505	-17.064427	-38.045181	62.835609	13.514040	30.033071	42.753130	52.958964	7.533113	40.179260	59.399170	33.275088	-6.825856	73.732768	71.279877	25.669701	-9.407919	81.908313	57.359558
0.245000	-0.845308	-4.283240	94.249796	0.156317	-0.266264	0.151623	102.587863	19.660259	16.536919	-2.008532	38.968660	-17.044008	-38.031462	62.853306	13.510256	30.041662	42.658132	52.972862	7.531025	40.166475	59.358122	33.272980	-6.823560	73.747687	71.303676	25.665796	-9.404241	81.911124	57.338635
0.255000	-0.845308	-4.283240	94.249796	0.156327	-0.266260	0.151555	102.539448	19.644929	16.550678	-2.004564	39.002165	-17.028814	-38.018860	62.874165	13.504205	30.029493	42.576308	52.988605	7.528630	40.135180	59.333469	33.270389	-6.821216	73.764374	71.337689	25.657450	-9.399513	81.917533	57.321911
